<mxfile host="app.diagrams.net" modified="2023-09-13T10:22:54.685Z" agent="Mozilla/5.0 (Windows NT 10.0; Win64; x64) AppleWebKit/537.36 (KHTML, like Gecko) Chrome/116.0.0.0 Safari/537.36" etag="brNOi-tzXm8KsmPnnJky" version="21.7.5" type="device">
  <diagram name="Страница — 1" id="lmCHcwSu17XxMVSSAZtJ">
    <mxGraphModel dx="3434" dy="1333" grid="1" gridSize="10" guides="1" tooltips="1" connect="1" arrows="1" fold="1" page="1" pageScale="1" pageWidth="827" pageHeight="1169" math="0" shadow="0">
      <root>
        <mxCell id="0" />
        <mxCell id="1" parent="0" />
        <mxCell id="7SbMsLq4eAWul0OiesNL-62" style="edgeStyle=orthogonalEdgeStyle;rounded=0;orthogonalLoop=1;jettySize=auto;html=1;exitX=0.5;exitY=1;exitDx=0;exitDy=0;" edge="1" parent="1" source="7SbMsLq4eAWul0OiesNL-1" target="7SbMsLq4eAWul0OiesNL-8">
          <mxGeometry relative="1" as="geometry" />
        </mxCell>
        <mxCell id="7SbMsLq4eAWul0OiesNL-63" style="edgeStyle=orthogonalEdgeStyle;rounded=0;orthogonalLoop=1;jettySize=auto;html=1;exitX=0.5;exitY=1;exitDx=0;exitDy=0;" edge="1" parent="1" source="7SbMsLq4eAWul0OiesNL-1" target="7SbMsLq4eAWul0OiesNL-9">
          <mxGeometry relative="1" as="geometry" />
        </mxCell>
        <mxCell id="7SbMsLq4eAWul0OiesNL-66" style="edgeStyle=orthogonalEdgeStyle;rounded=0;orthogonalLoop=1;jettySize=auto;html=1;exitX=0.5;exitY=1;exitDx=0;exitDy=0;" edge="1" parent="1" source="7SbMsLq4eAWul0OiesNL-1" target="7SbMsLq4eAWul0OiesNL-7">
          <mxGeometry relative="1" as="geometry" />
        </mxCell>
        <mxCell id="7SbMsLq4eAWul0OiesNL-1" value="&lt;span style=&quot;line-height: 115%;&quot;&gt;&lt;b style=&quot;&quot;&gt;&lt;font style=&quot;font-size: 18px;&quot;&gt;Настольные&lt;br&gt;игры&lt;/font&gt;&lt;/b&gt;&lt;/span&gt;" style="ellipse;whiteSpace=wrap;html=1;" vertex="1" parent="1">
          <mxGeometry x="210" width="140" height="100" as="geometry" />
        </mxCell>
        <mxCell id="7SbMsLq4eAWul0OiesNL-31" style="edgeStyle=orthogonalEdgeStyle;rounded=0;orthogonalLoop=1;jettySize=auto;html=1;exitX=0.5;exitY=1;exitDx=0;exitDy=0;entryX=0.5;entryY=0;entryDx=0;entryDy=0;" edge="1" parent="1" source="7SbMsLq4eAWul0OiesNL-2" target="7SbMsLq4eAWul0OiesNL-16">
          <mxGeometry relative="1" as="geometry" />
        </mxCell>
        <mxCell id="7SbMsLq4eAWul0OiesNL-32" style="edgeStyle=orthogonalEdgeStyle;rounded=0;orthogonalLoop=1;jettySize=auto;html=1;exitX=0.5;exitY=1;exitDx=0;exitDy=0;entryX=0.5;entryY=0;entryDx=0;entryDy=0;" edge="1" parent="1" source="7SbMsLq4eAWul0OiesNL-2" target="7SbMsLq4eAWul0OiesNL-18">
          <mxGeometry relative="1" as="geometry" />
        </mxCell>
        <mxCell id="7SbMsLq4eAWul0OiesNL-2" value="&lt;b&gt;Классические&lt;/b&gt;" style="ellipse;whiteSpace=wrap;html=1;" vertex="1" parent="1">
          <mxGeometry x="30" y="298.42" width="120" height="80" as="geometry" />
        </mxCell>
        <mxCell id="7SbMsLq4eAWul0OiesNL-29" style="edgeStyle=orthogonalEdgeStyle;rounded=0;orthogonalLoop=1;jettySize=auto;html=1;exitX=0.5;exitY=1;exitDx=0;exitDy=0;entryX=0.5;entryY=0;entryDx=0;entryDy=0;" edge="1" parent="1" source="7SbMsLq4eAWul0OiesNL-3" target="7SbMsLq4eAWul0OiesNL-20">
          <mxGeometry relative="1" as="geometry" />
        </mxCell>
        <mxCell id="7SbMsLq4eAWul0OiesNL-3" value="&lt;b&gt;Интеллектуальные&lt;/b&gt;" style="ellipse;whiteSpace=wrap;html=1;" vertex="1" parent="1">
          <mxGeometry x="250" y="298.42" width="120" height="80" as="geometry" />
        </mxCell>
        <mxCell id="7SbMsLq4eAWul0OiesNL-64" style="edgeStyle=orthogonalEdgeStyle;rounded=0;orthogonalLoop=1;jettySize=auto;html=1;exitX=0.5;exitY=1;exitDx=0;exitDy=0;" edge="1" parent="1" source="7SbMsLq4eAWul0OiesNL-7" target="7SbMsLq4eAWul0OiesNL-10">
          <mxGeometry relative="1" as="geometry" />
        </mxCell>
        <mxCell id="7SbMsLq4eAWul0OiesNL-65" style="edgeStyle=orthogonalEdgeStyle;rounded=0;orthogonalLoop=1;jettySize=auto;html=1;exitX=0.5;exitY=1;exitDx=0;exitDy=0;" edge="1" parent="1" source="7SbMsLq4eAWul0OiesNL-7" target="7SbMsLq4eAWul0OiesNL-11">
          <mxGeometry relative="1" as="geometry" />
        </mxCell>
        <mxCell id="7SbMsLq4eAWul0OiesNL-7" value="&lt;b&gt;Для детей&lt;/b&gt;" style="ellipse;whiteSpace=wrap;html=1;" vertex="1" parent="1">
          <mxGeometry x="-340" y="160" width="120" height="80" as="geometry" />
        </mxCell>
        <mxCell id="7SbMsLq4eAWul0OiesNL-57" style="edgeStyle=orthogonalEdgeStyle;rounded=0;orthogonalLoop=1;jettySize=auto;html=1;exitX=0.5;exitY=1;exitDx=0;exitDy=0;" edge="1" parent="1" source="7SbMsLq4eAWul0OiesNL-8" target="7SbMsLq4eAWul0OiesNL-2">
          <mxGeometry relative="1" as="geometry" />
        </mxCell>
        <mxCell id="7SbMsLq4eAWul0OiesNL-58" style="edgeStyle=orthogonalEdgeStyle;rounded=0;orthogonalLoop=1;jettySize=auto;html=1;exitX=0.5;exitY=1;exitDx=0;exitDy=0;" edge="1" parent="1" source="7SbMsLq4eAWul0OiesNL-8" target="7SbMsLq4eAWul0OiesNL-3">
          <mxGeometry relative="1" as="geometry" />
        </mxCell>
        <mxCell id="7SbMsLq4eAWul0OiesNL-59" style="edgeStyle=orthogonalEdgeStyle;rounded=0;orthogonalLoop=1;jettySize=auto;html=1;exitX=0.5;exitY=1;exitDx=0;exitDy=0;" edge="1" parent="1" source="7SbMsLq4eAWul0OiesNL-8" target="7SbMsLq4eAWul0OiesNL-14">
          <mxGeometry relative="1" as="geometry" />
        </mxCell>
        <mxCell id="7SbMsLq4eAWul0OiesNL-60" style="edgeStyle=orthogonalEdgeStyle;rounded=0;orthogonalLoop=1;jettySize=auto;html=1;exitX=0.5;exitY=1;exitDx=0;exitDy=0;" edge="1" parent="1" source="7SbMsLq4eAWul0OiesNL-8" target="7SbMsLq4eAWul0OiesNL-12">
          <mxGeometry relative="1" as="geometry" />
        </mxCell>
        <mxCell id="7SbMsLq4eAWul0OiesNL-8" value="&lt;b&gt;Для взрослых&lt;/b&gt;" style="ellipse;whiteSpace=wrap;html=1;" vertex="1" parent="1">
          <mxGeometry x="353" y="160" width="120" height="80" as="geometry" />
        </mxCell>
        <mxCell id="7SbMsLq4eAWul0OiesNL-56" style="edgeStyle=orthogonalEdgeStyle;rounded=0;orthogonalLoop=1;jettySize=auto;html=1;exitX=0.5;exitY=1;exitDx=0;exitDy=0;" edge="1" parent="1" source="7SbMsLq4eAWul0OiesNL-9" target="7SbMsLq4eAWul0OiesNL-13">
          <mxGeometry relative="1" as="geometry" />
        </mxCell>
        <mxCell id="7SbMsLq4eAWul0OiesNL-9" value="&lt;b&gt;Для всех возрастов&lt;/b&gt;" style="ellipse;whiteSpace=wrap;html=1;" vertex="1" parent="1">
          <mxGeometry x="825" y="160" width="120" height="80" as="geometry" />
        </mxCell>
        <mxCell id="7SbMsLq4eAWul0OiesNL-52" value="" style="edgeStyle=orthogonalEdgeStyle;rounded=0;orthogonalLoop=1;jettySize=auto;html=1;" edge="1" parent="1" source="7SbMsLq4eAWul0OiesNL-10" target="7SbMsLq4eAWul0OiesNL-49">
          <mxGeometry relative="1" as="geometry" />
        </mxCell>
        <mxCell id="7SbMsLq4eAWul0OiesNL-53" style="edgeStyle=orthogonalEdgeStyle;rounded=0;orthogonalLoop=1;jettySize=auto;html=1;exitX=0.5;exitY=1;exitDx=0;exitDy=0;" edge="1" parent="1" source="7SbMsLq4eAWul0OiesNL-10" target="7SbMsLq4eAWul0OiesNL-47">
          <mxGeometry relative="1" as="geometry" />
        </mxCell>
        <mxCell id="7SbMsLq4eAWul0OiesNL-10" value="&lt;b&gt;Развивиающие&lt;/b&gt;" style="ellipse;whiteSpace=wrap;html=1;" vertex="1" parent="1">
          <mxGeometry x="-450" y="286.84" width="120" height="80" as="geometry" />
        </mxCell>
        <mxCell id="7SbMsLq4eAWul0OiesNL-54" style="edgeStyle=orthogonalEdgeStyle;rounded=0;orthogonalLoop=1;jettySize=auto;html=1;exitX=0.5;exitY=1;exitDx=0;exitDy=0;" edge="1" parent="1" source="7SbMsLq4eAWul0OiesNL-11" target="7SbMsLq4eAWul0OiesNL-50">
          <mxGeometry relative="1" as="geometry" />
        </mxCell>
        <mxCell id="7SbMsLq4eAWul0OiesNL-55" style="edgeStyle=orthogonalEdgeStyle;rounded=0;orthogonalLoop=1;jettySize=auto;html=1;exitX=0.5;exitY=1;exitDx=0;exitDy=0;" edge="1" parent="1" source="7SbMsLq4eAWul0OiesNL-11" target="7SbMsLq4eAWul0OiesNL-51">
          <mxGeometry relative="1" as="geometry" />
        </mxCell>
        <mxCell id="7SbMsLq4eAWul0OiesNL-11" value="&lt;b&gt;Обучающие&lt;/b&gt;" style="ellipse;whiteSpace=wrap;html=1;" vertex="1" parent="1">
          <mxGeometry x="-240" y="286.84" width="120" height="80" as="geometry" />
        </mxCell>
        <mxCell id="7SbMsLq4eAWul0OiesNL-36" style="edgeStyle=orthogonalEdgeStyle;rounded=0;orthogonalLoop=1;jettySize=auto;html=1;exitX=0.5;exitY=1;exitDx=0;exitDy=0;entryX=0.5;entryY=0;entryDx=0;entryDy=0;" edge="1" parent="1" source="7SbMsLq4eAWul0OiesNL-12" target="7SbMsLq4eAWul0OiesNL-33">
          <mxGeometry relative="1" as="geometry" />
        </mxCell>
        <mxCell id="7SbMsLq4eAWul0OiesNL-38" style="edgeStyle=orthogonalEdgeStyle;rounded=0;orthogonalLoop=1;jettySize=auto;html=1;exitX=0.5;exitY=1;exitDx=0;exitDy=0;entryX=0.5;entryY=0;entryDx=0;entryDy=0;" edge="1" parent="1" source="7SbMsLq4eAWul0OiesNL-12" target="7SbMsLq4eAWul0OiesNL-35">
          <mxGeometry relative="1" as="geometry" />
        </mxCell>
        <mxCell id="7SbMsLq4eAWul0OiesNL-12" value="&lt;b&gt;Азартные&lt;/b&gt;" style="ellipse;whiteSpace=wrap;html=1;" vertex="1" parent="1">
          <mxGeometry x="624.5" y="298.42" width="120" height="80" as="geometry" />
        </mxCell>
        <mxCell id="7SbMsLq4eAWul0OiesNL-44" style="edgeStyle=orthogonalEdgeStyle;rounded=0;orthogonalLoop=1;jettySize=auto;html=1;exitX=0.5;exitY=1;exitDx=0;exitDy=0;entryX=0.5;entryY=0;entryDx=0;entryDy=0;" edge="1" parent="1" source="7SbMsLq4eAWul0OiesNL-13" target="7SbMsLq4eAWul0OiesNL-40">
          <mxGeometry relative="1" as="geometry" />
        </mxCell>
        <mxCell id="7SbMsLq4eAWul0OiesNL-45" style="edgeStyle=orthogonalEdgeStyle;rounded=0;orthogonalLoop=1;jettySize=auto;html=1;exitX=0.5;exitY=1;exitDx=0;exitDy=0;entryX=0.5;entryY=0;entryDx=0;entryDy=0;" edge="1" parent="1" source="7SbMsLq4eAWul0OiesNL-13" target="7SbMsLq4eAWul0OiesNL-42">
          <mxGeometry relative="1" as="geometry" />
        </mxCell>
        <mxCell id="7SbMsLq4eAWul0OiesNL-13" value="&lt;b&gt;Приключенческие&lt;/b&gt;" style="ellipse;whiteSpace=wrap;html=1;" vertex="1" parent="1">
          <mxGeometry x="825" y="298.42" width="120" height="80" as="geometry" />
        </mxCell>
        <mxCell id="7SbMsLq4eAWul0OiesNL-27" style="edgeStyle=orthogonalEdgeStyle;rounded=0;orthogonalLoop=1;jettySize=auto;html=1;exitX=0.5;exitY=1;exitDx=0;exitDy=0;entryX=0.5;entryY=0;entryDx=0;entryDy=0;" edge="1" parent="1" source="7SbMsLq4eAWul0OiesNL-14" target="7SbMsLq4eAWul0OiesNL-22">
          <mxGeometry relative="1" as="geometry" />
        </mxCell>
        <mxCell id="7SbMsLq4eAWul0OiesNL-28" style="edgeStyle=orthogonalEdgeStyle;rounded=0;orthogonalLoop=1;jettySize=auto;html=1;exitX=0.5;exitY=1;exitDx=0;exitDy=0;entryX=0.5;entryY=0;entryDx=0;entryDy=0;" edge="1" parent="1" source="7SbMsLq4eAWul0OiesNL-14" target="7SbMsLq4eAWul0OiesNL-23">
          <mxGeometry relative="1" as="geometry" />
        </mxCell>
        <mxCell id="7SbMsLq4eAWul0OiesNL-14" value="&lt;b&gt;Стратегические&lt;/b&gt;" style="ellipse;whiteSpace=wrap;html=1;" vertex="1" parent="1">
          <mxGeometry x="418" y="298.42" width="120" height="80" as="geometry" />
        </mxCell>
        <mxCell id="7SbMsLq4eAWul0OiesNL-16" value="С использованием шахматной доски&lt;br&gt;(шахматы, шашки)" style="ellipse;whiteSpace=wrap;html=1;" vertex="1" parent="1">
          <mxGeometry x="-60" y="418.42" width="140" height="100" as="geometry" />
        </mxCell>
        <mxCell id="7SbMsLq4eAWul0OiesNL-18" value="С использованием специфических предметов&lt;br&gt;(домино, нарды)" style="ellipse;whiteSpace=wrap;html=1;" vertex="1" parent="1">
          <mxGeometry x="90" y="418.42" width="140" height="100" as="geometry" />
        </mxCell>
        <mxCell id="7SbMsLq4eAWul0OiesNL-20" value="Викторина" style="ellipse;whiteSpace=wrap;html=1;" vertex="1" parent="1">
          <mxGeometry x="250" y="418.42" width="120" height="80" as="geometry" />
        </mxCell>
        <mxCell id="7SbMsLq4eAWul0OiesNL-22" value="Экономические" style="ellipse;whiteSpace=wrap;html=1;" vertex="1" parent="1">
          <mxGeometry x="380" y="417.63" width="91" height="80" as="geometry" />
        </mxCell>
        <mxCell id="7SbMsLq4eAWul0OiesNL-23" value="Политические" style="ellipse;whiteSpace=wrap;html=1;" vertex="1" parent="1">
          <mxGeometry x="486" y="417.63" width="90" height="80" as="geometry" />
        </mxCell>
        <mxCell id="7SbMsLq4eAWul0OiesNL-33" value="Карточные" style="ellipse;whiteSpace=wrap;html=1;" vertex="1" parent="1">
          <mxGeometry x="589.5" y="418.03000000000003" width="90" height="80" as="geometry" />
        </mxCell>
        <mxCell id="7SbMsLq4eAWul0OiesNL-35" value="Случайные числа&lt;br&gt;(Бинго)" style="ellipse;whiteSpace=wrap;html=1;" vertex="1" parent="1">
          <mxGeometry x="689.5" y="418.42" width="90" height="80" as="geometry" />
        </mxCell>
        <mxCell id="7SbMsLq4eAWul0OiesNL-40" value="Про леса и джунгли" style="ellipse;whiteSpace=wrap;html=1;" vertex="1" parent="1">
          <mxGeometry x="790" y="418.4200000000001" width="90" height="80" as="geometry" />
        </mxCell>
        <mxCell id="7SbMsLq4eAWul0OiesNL-42" value="Про древние города" style="ellipse;whiteSpace=wrap;html=1;" vertex="1" parent="1">
          <mxGeometry x="890" y="419.2100000000001" width="90" height="80" as="geometry" />
        </mxCell>
        <mxCell id="7SbMsLq4eAWul0OiesNL-47" value="Мелкая моторика" style="ellipse;whiteSpace=wrap;html=1;" vertex="1" parent="1">
          <mxGeometry x="-480" y="418.41999999999996" width="86" height="79.21" as="geometry" />
        </mxCell>
        <mxCell id="7SbMsLq4eAWul0OiesNL-49" value="Память" style="ellipse;whiteSpace=wrap;html=1;" vertex="1" parent="1">
          <mxGeometry x="-380" y="418.41999999999996" width="86" height="79.21" as="geometry" />
        </mxCell>
        <mxCell id="7SbMsLq4eAWul0OiesNL-50" value="Чтение" style="ellipse;whiteSpace=wrap;html=1;" vertex="1" parent="1">
          <mxGeometry x="-270" y="418.41999999999996" width="86" height="79.21" as="geometry" />
        </mxCell>
        <mxCell id="7SbMsLq4eAWul0OiesNL-51" value="Письмо" style="ellipse;whiteSpace=wrap;html=1;" vertex="1" parent="1">
          <mxGeometry x="-170" y="418.41999999999996" width="86" height="79.21" as="geometry" />
        </mxCell>
      </root>
    </mxGraphModel>
  </diagram>
</mxfile>
